#Comment line ignore any data following # character 
#Hierarchical Translation and Rotation (.htr) file 
[Header]	
#Header keywords are followed by a single value 
FileType HTR		#Single word string
DataType HTRS		#Translation followed by rotation and scale data
FileVersion 1		#integer
NumSegments 84		#integer
NumFrames 2		#integer
DataFrameRate 30		#integer, data frame rate in this file
EulerRotationOrder ZYX
CalibrationUnits mm
RotationUnits Degrees
GlobalAxisofGravity Y
BoneLengthAxis Y
ScaleFactor 1.00
[SegmentNames&Hierarchy]
#CHILD	PARENT
MASTER GLOBAL
root MASTER
chest root
L_mid_tent01 root
R_mid_tent01 root
spine01 root
Bip01_Neck chest
L_humerus chest
R_humerus chest
weapon_bone chest
Bip01_Head Bip01_Neck
eye_left_bone Bip01_Head
eye_right_bone Bip01_Head
L_forearm L_humerus
L_front_hand L_forearm
L_weapon_bone L_forearm
L_front_hand01_01 L_front_hand
L_front_hand02_01 L_front_hand
L_front_hand03_01 L_front_hand
L_front_hand01_02 L_front_hand01_01
L_front_hand02_02 L_front_hand02_01
L_front_hand03_02 L_front_hand03_01
R_forearm R_humerus
R_front_hand R_forearm
R_weapon_bone R_forearm
R_front_hand01_01 R_front_hand
R_front_hand02_01 R_front_hand
R_front_hand03_01 R_front_hand
R_front_hand01_02 R_front_hand01_01
R_front_hand02_02 R_front_hand02_01
R_front_hand03_02 R_front_hand03_01
null_rope01_connect L_mid_tent01
Rope1_Seg01 null_rope01_connect
Rope1_Seg02 Rope1_Seg01
Rope1_Seg03 Rope1_Seg02
Rope1_Seg04 Rope1_Seg03
Rope1_Seg05 Rope1_Seg04
Rope1_Seg06 Rope1_Seg05
Rope1_Seg07 Rope1_Seg06
Rope1_Seg09 Rope1_Seg07
L_mid_hand01 Rope1_Seg09
L_mid_hand02 Rope1_Seg09
L_mid_hand03 Rope1_Seg09
null_rope02_connect R_mid_tent01
Rope2_Seg01 null_rope02_connect
Rope2_Seg02 Rope2_Seg01
Rope2_Seg03 Rope2_Seg02
Rope2_Seg04 Rope2_Seg03
Rope2_Seg05 Rope2_Seg04
Rope2_Seg06 Rope2_Seg05
Rope2_Seg07 Rope2_Seg06
Rope2_Seg09 Rope2_Seg07
R_mid_hand01 Rope2_Seg09
R_mid_hand02 Rope2_Seg09
R_mid_hand03 Rope2_Seg09
spine02 spine01
spine03 spine02
pelvis spine03
null_rope03_connect pelvis
null_rope04_connect pelvis
Rope3_Seg01 null_rope03_connect
Rope3_Seg02 Rope3_Seg01
Rope3_Seg03 Rope3_Seg02
Rope3_Seg04 Rope3_Seg03
Rope3_Seg05 Rope3_Seg04
Rope3_Seg06 Rope3_Seg05
Rope3_Seg07 Rope3_Seg06
Rope3_Seg08 Rope3_Seg07
Rope3_Seg09 Rope3_Seg08
R_rear_hand01 Rope3_Seg09
R_rear_hand02 Rope3_Seg09
R_rear_hand03 Rope3_Seg09
Rope4_Seg01 null_rope04_connect
Rope4_Seg02 Rope4_Seg01
Rope4_Seg03 Rope4_Seg02
Rope4_Seg04 Rope4_Seg03
Rope4_Seg05 Rope4_Seg04
Rope4_Seg06 Rope4_Seg05
Rope4_Seg07 Rope4_Seg06
Rope4_Seg08 Rope4_Seg07
Rope4_Seg09 Rope4_Seg08
L_rear_hand01 Rope4_Seg09
L_rear_hand02 Rope4_Seg09
L_rear_hand03 Rope4_Seg09
[BasePosition]
#SegmentName Tx, Ty, Tz, Rx, Ry, Rz, BoneLength
MASTER 0.000000 0.000000 0.000000 -90.000000 0.000000 0.000000 10.000000 
root 0.000000 0.000000 0.000000 0.000000 0.000000 0.000000 10.000000 
chest 0.000000 0.000000 0.000000 0.000000 0.000000 0.000000 10.000000 
L_mid_tent01 0.000000 0.000000 0.000000 0.000000 0.000000 0.000000 10.000000 
R_mid_tent01 0.000000 0.000000 0.000000 0.000000 0.000000 0.000000 10.000000 
spine01 0.000000 0.000000 0.000000 0.000000 0.000000 0.000000 10.000000 
Bip01_Neck 0.000000 0.000000 0.000000 0.000000 0.000000 0.000000 10.000000 
L_humerus 0.000000 0.000000 0.000000 0.000000 0.000000 0.000000 10.000000 
R_humerus 0.000000 0.000000 0.000000 0.000000 0.000000 0.000000 10.000000 
weapon_bone 0.000000 0.000000 0.000000 0.000000 0.000000 0.000000 10.000000 
Bip01_Head 0.000000 0.000000 0.000000 0.000000 0.000000 0.000000 10.000000 
eye_left_bone 0.000000 0.000000 0.000000 0.000000 0.000000 0.000000 10.000000 
eye_right_bone 0.000000 0.000000 0.000000 0.000000 0.000000 0.000000 10.000000 
L_forearm 0.000000 0.000000 0.000000 0.000000 0.000000 0.000000 10.000000 
L_front_hand 0.000000 0.000000 0.000000 0.000000 0.000000 0.000000 10.000000 
L_weapon_bone 0.000000 0.000000 0.000000 0.000000 0.000000 0.000000 10.000000 
L_front_hand01_01 0.000000 0.000000 0.000000 0.000000 0.000000 0.000000 10.000000 
L_front_hand02_01 0.000000 0.000000 0.000000 0.000000 0.000000 0.000000 10.000000 
L_front_hand03_01 0.000000 0.000000 0.000000 0.000000 0.000000 0.000000 10.000000 
L_front_hand01_02 0.000000 0.000000 0.000000 0.000000 0.000000 0.000000 10.000000 
L_front_hand02_02 0.000000 0.000000 0.000000 0.000000 0.000000 0.000000 10.000000 
L_front_hand03_02 0.000000 0.000000 0.000000 0.000000 0.000000 0.000000 10.000000 
R_forearm 0.000000 0.000000 0.000000 0.000000 0.000000 0.000000 10.000000 
R_front_hand 0.000000 0.000000 0.000000 0.000000 0.000000 0.000000 10.000000 
R_weapon_bone 0.000000 0.000000 0.000000 0.000000 0.000000 0.000000 10.000000 
R_front_hand01_01 0.000000 0.000000 0.000000 0.000000 0.000000 0.000000 10.000000 
R_front_hand02_01 0.000000 0.000000 0.000000 0.000000 0.000000 0.000000 10.000000 
R_front_hand03_01 0.000000 0.000000 0.000000 0.000000 0.000000 0.000000 10.000000 
R_front_hand01_02 0.000000 0.000000 0.000000 0.000000 0.000000 0.000000 10.000000 
R_front_hand02_02 0.000000 0.000000 0.000000 0.000000 0.000000 0.000000 10.000000 
R_front_hand03_02 0.000000 0.000000 0.000000 0.000000 0.000000 0.000000 10.000000 
null_rope01_connect 0.000000 0.000000 0.000000 0.000000 0.000000 0.000000 10.000000 
Rope1_Seg01 0.000000 0.000000 0.000000 0.000000 0.000000 0.000000 10.000000 
Rope1_Seg02 0.000000 0.000000 0.000000 0.000000 0.000000 0.000000 10.000000 
Rope1_Seg03 0.000000 0.000000 0.000000 0.000000 0.000000 0.000000 10.000000 
Rope1_Seg04 0.000000 0.000000 0.000000 0.000000 0.000000 0.000000 10.000000 
Rope1_Seg05 0.000000 0.000000 0.000000 0.000000 0.000000 0.000000 10.000000 
Rope1_Seg06 0.000000 0.000000 0.000000 0.000000 0.000000 0.000000 10.000000 
Rope1_Seg07 0.000000 0.000000 0.000000 0.000000 0.000000 0.000000 10.000000 
Rope1_Seg09 0.000000 0.000000 0.000000 0.000000 0.000000 0.000000 10.000000 
L_mid_hand01 0.000000 0.000000 0.000000 0.000000 0.000000 0.000000 10.000000 
L_mid_hand02 0.000000 0.000000 0.000000 0.000000 0.000000 0.000000 10.000000 
L_mid_hand03 0.000000 0.000000 0.000000 0.000000 0.000000 0.000000 10.000000 
null_rope02_connect 0.000000 0.000000 0.000000 0.000000 0.000000 0.000000 10.000000 
Rope2_Seg01 0.000000 0.000000 0.000000 0.000000 0.000000 0.000000 10.000000 
Rope2_Seg02 0.000000 0.000000 0.000000 0.000000 0.000000 0.000000 10.000000 
Rope2_Seg03 0.000000 0.000000 0.000000 0.000000 0.000000 0.000000 10.000000 
Rope2_Seg04 0.000000 0.000000 0.000000 0.000000 0.000000 0.000000 10.000000 
Rope2_Seg05 0.000000 0.000000 0.000000 0.000000 0.000000 0.000000 10.000000 
Rope2_Seg06 0.000000 0.000000 0.000000 0.000000 0.000000 0.000000 10.000000 
Rope2_Seg07 0.000000 0.000000 0.000000 0.000000 0.000000 0.000000 10.000000 
Rope2_Seg09 0.000000 0.000000 0.000000 0.000000 0.000000 0.000000 10.000000 
R_mid_hand01 0.000000 0.000000 0.000000 0.000000 0.000000 0.000000 10.000000 
R_mid_hand02 0.000000 0.000000 0.000000 0.000000 0.000000 0.000000 10.000000 
R_mid_hand03 0.000000 0.000000 0.000000 0.000000 0.000000 0.000000 10.000000 
spine02 0.000000 0.000000 0.000000 0.000000 0.000000 0.000000 10.000000 
spine03 0.000000 0.000000 0.000000 0.000000 0.000000 0.000000 10.000000 
pelvis 0.000000 0.000000 0.000000 0.000000 0.000000 0.000000 10.000000 
null_rope03_connect 0.000000 0.000000 0.000000 0.000000 0.000000 0.000000 10.000000 
null_rope04_connect 0.000000 0.000000 0.000000 0.000000 0.000000 0.000000 10.000000 
Rope3_Seg01 0.000000 0.000000 0.000000 0.000000 0.000000 0.000000 10.000000 
Rope3_Seg02 0.000000 0.000000 0.000000 0.000000 0.000000 0.000000 10.000000 
Rope3_Seg03 0.000000 0.000000 0.000000 0.000000 0.000000 0.000000 10.000000 
Rope3_Seg04 0.000000 0.000000 0.000000 0.000000 0.000000 0.000000 10.000000 
Rope3_Seg05 0.000000 0.000000 0.000000 0.000000 0.000000 0.000000 10.000000 
Rope3_Seg06 0.000000 0.000000 0.000000 0.000000 0.000000 0.000000 10.000000 
Rope3_Seg07 0.000000 0.000000 0.000000 0.000000 0.000000 0.000000 10.000000 
Rope3_Seg08 0.000000 0.000000 0.000000 0.000000 0.000000 0.000000 10.000000 
Rope3_Seg09 0.000000 0.000000 0.000000 0.000000 0.000000 0.000000 10.000000 
R_rear_hand01 0.000000 0.000000 0.000000 0.000000 0.000000 0.000000 10.000000 
R_rear_hand02 0.000000 0.000000 0.000000 0.000000 0.000000 0.000000 10.000000 
R_rear_hand03 0.000000 0.000000 0.000000 0.000000 0.000000 0.000000 10.000000 
Rope4_Seg01 0.000000 0.000000 0.000000 0.000000 0.000000 0.000000 10.000000 
Rope4_Seg02 0.000000 0.000000 0.000000 0.000000 0.000000 0.000000 10.000000 
Rope4_Seg03 0.000000 0.000000 0.000000 0.000000 0.000000 0.000000 10.000000 
Rope4_Seg04 0.000000 0.000000 0.000000 0.000000 0.000000 0.000000 10.000000 
Rope4_Seg05 0.000000 0.000000 0.000000 0.000000 0.000000 0.000000 10.000000 
Rope4_Seg06 0.000000 0.000000 0.000000 0.000000 0.000000 0.000000 10.000000 
Rope4_Seg07 0.000000 0.000000 0.000000 0.000000 0.000000 0.000000 10.000000 
Rope4_Seg08 0.000000 0.000000 0.000000 0.000000 0.000000 0.000000 10.000000 
Rope4_Seg09 0.000000 0.000000 0.000000 0.000000 0.000000 0.000000 10.000000 
L_rear_hand01 0.000000 0.000000 0.000000 0.000000 0.000000 0.000000 10.000000 
L_rear_hand02 0.000000 0.000000 0.000000 0.000000 0.000000 0.000000 10.000000 
L_rear_hand03 0.000000 0.000000 0.000000 0.000000 0.000000 0.000000 10.000000 
#Beginning of Data. Separated by tabs
#Fr	Tx	Ty	Tz	Rx	Ry	Rz	SF
[MASTER]
7 43.357738 1273.706421 655.429626 0.001660 0.001660 0.001660 1433.107056
8 87.153793 1387.183472 894.124695 0.001660 0.001660 0.001660 1652.674438
[root]
7 -16.408327 -63.969799 1499.578491 -91.599319 -5.448159 -90.995682 1501.031982
8 -15.705928 -66.694641 1497.580444 -92.025406 -6.894668 -91.241554 1499.147095
[chest]
7 -84.512650 -34.090519 0.000000 -1.747625 0.591364 172.415924 91.129311
8 -84.512650 -34.090519 0.000000 -1.415191 0.577793 173.166458 91.129311
[L_mid_tent01]
7 27.299509 22.177504 -249.918259 -0.665122 30.070936 67.683655 252.381134
8 27.299509 22.177504 -249.918259 -0.134410 23.599373 68.719719 252.381134
[R_mid_tent01]
7 23.228794 24.509907 226.238495 171.962082 -27.534618 62.823994 228.744751
8 23.228794 24.509907 226.238495 170.248795 -23.754375 67.391174 228.744751
[spine01]
7 -0.361383 -0.195265 0.000000 0.001845 0.001451 13.654366 0.410763
8 -0.361383 -0.195265 0.000000 0.001845 0.001451 13.654367 0.410763
[Bip01_Neck]
7 165.484543 71.581718 0.000119 176.643677 -1.657967 43.431911 180.302734
8 165.484543 71.581718 0.000119 176.643677 -1.657967 43.431911 180.302734
[L_humerus]
7 -13.983130 -135.272980 -120.471481 155.696060 70.709358 -112.669144 181.680161
8 -13.983130 -135.272980 -120.471481 154.648468 71.488350 -113.773849 181.680161
[R_humerus]
7 -13.983309 -135.273102 125.287651 -172.329208 -67.057663 -92.612221 184.909012
8 -13.983309 -135.273102 125.287651 -172.199493 -67.483223 -92.750702 184.909012
[weapon_bone]
7 235.964890 -300.705902 0.000000 0.000000 -89.951546 -128.212341 382.234833
8 235.964890 -300.705902 0.000000 0.000000 -89.951546 -128.212341 382.234833
[Bip01_Head]
7 213.442139 185.722473 11.685799 4.965024 2.937652 -43.899414 283.172974
8 213.441772 185.723648 11.670609 4.965611 3.321741 -43.892323 283.172852
[eye_left_bone]
7 -24.626970 125.451866 -64.772606 0.000000 -90.000000 -99.840431 143.318359
8 -24.626970 125.451866 -64.772606 0.000000 -90.000000 -99.840431 143.318359
[eye_right_bone]
7 -24.626970 125.451866 64.327362 0.000000 -89.965736 80.156380 143.117676
8 -24.626970 125.451866 64.327362 0.000000 -89.965736 80.156380 143.117676
[L_forearm]
7 322.776093 0.000000 -0.000119 0.000119 -0.002344 -95.807457 322.776093
8 322.776093 0.000000 -0.000119 0.000119 -0.002344 -95.807457 322.776093
[L_front_hand]
7 241.149185 -0.042021 -3.300071 -178.631958 -1.836848 -27.423050 241.171753
8 241.149185 -0.042021 -3.300071 -178.540741 -1.834967 -27.424755 241.171753
[L_weapon_bone]
7 156.183838 0.000000 0.000000 0.000014 0.000007 0.000001 156.183838
8 156.183838 0.000000 0.000000 0.000014 0.000007 0.000001 156.183838
[L_front_hand01_01]
7 86.095154 20.947098 -0.655860 -0.366594 -0.477154 75.385574 88.609184
8 86.095154 20.947098 -0.655860 -0.366594 -0.477154 75.385574 88.609184
[L_front_hand02_01]
7 86.935165 -11.437475 24.513514 154.399796 -59.883835 -61.369587 91.046425
8 86.935165 -11.437475 24.513514 154.399796 -59.883835 -61.369587 91.046425
[L_front_hand03_01]
7 86.637497 -14.123976 -20.424902 -153.913849 58.118122 -62.702866 90.126129
8 86.637497 -14.123976 -20.424902 -153.913849 58.118122 -62.702866 90.126129
[L_front_hand01_02]
7 71.020905 -0.000179 0.000030 0.000319 -0.002325 -105.644562 71.020905
8 71.020905 -0.000179 0.000030 0.000319 -0.002326 -105.599358 71.020905
[L_front_hand02_02]
7 71.020927 -0.000119 0.000060 0.000319 -0.002325 -105.644562 71.020927
8 71.020927 -0.000119 0.000060 0.000319 -0.002326 -105.599358 71.020927
[L_front_hand03_02]
7 71.020905 -0.000060 0.000060 0.000319 -0.002325 -105.644562 71.020905
8 71.020905 -0.000060 0.000060 0.000319 -0.002326 -105.599358 71.020905
[R_forearm]
7 322.776428 -0.000060 0.000030 0.213186 0.007840 -93.594994 322.776428
8 322.776428 -0.000060 0.000030 0.213239 0.006386 -92.813103 322.776428
[R_front_hand]
7 238.847015 -0.006795 2.210259 -2.447123 -10.641955 -26.313753 238.857239
8 238.847015 -0.006795 2.210259 -1.925393 -10.646638 -26.314121 238.857239
[R_weapon_bone]
7 155.664093 0.002503 -0.000030 0.003487 0.001180 -90.988930 155.664078
8 155.664093 0.002503 -0.000030 0.003487 0.001180 -90.988930 155.664078
[R_front_hand01_01]
7 87.624611 14.231146 22.918642 -154.633499 -59.950619 61.746044 91.683487
8 87.624611 14.231146 22.918642 -154.633499 -59.950619 61.746044 91.683487
[R_front_hand02_01]
7 89.356956 14.367283 -19.491137 154.602661 58.302849 63.744389 92.579636
8 89.356956 14.367283 -19.491137 154.602661 58.302849 63.744389 92.579636
[R_front_hand03_01]
7 87.286232 -22.307278 -0.143439 0.162155 -0.423168 -75.767921 90.091743
8 87.286232 -22.307278 -0.143439 0.162155 -0.423168 -75.767921 90.091743
[R_front_hand01_02]
7 71.020905 0.000060 0.000119 0.002323 -0.000334 106.381714 71.020905
8 71.020905 0.000060 0.000119 0.002323 -0.000334 106.381706 71.020905
[R_front_hand02_02]
7 71.020844 -0.000030 -0.000119 0.002323 -0.000334 106.381714 71.020836
8 71.020844 -0.000030 -0.000119 0.002323 -0.000334 106.381706 71.020836
[R_front_hand03_02]
7 71.020905 0.000000 0.000030 0.002323 -0.000334 106.381714 71.020905
8 71.020905 0.000000 0.000030 0.002323 -0.000334 106.381706 71.020905
[null_rope01_connect]
7 328.732483 0.000000 -0.000238 -153.062561 -57.990582 -179.449127 328.732483
8 328.732483 0.000000 -0.000238 -151.414307 -63.915478 179.464951 328.732483
[Rope1_Seg01]
7 0.000000 0.000000 0.000000 132.857910 39.183998 174.928650 0.000000
8 0.000000 0.000000 0.000000 141.049561 50.661140 175.386658 0.000000
[Rope1_Seg02]
7 139.999863 -0.000179 0.000000 2.557127 -21.564430 8.947228 139.999863
8 139.999863 -0.000179 0.000000 1.366815 -22.445517 11.753553 139.999863
[Rope1_Seg03]
7 139.999924 0.000060 -0.000060 -13.431631 -44.579727 22.861778 139.999924
8 139.999924 0.000060 -0.000060 -8.626131 -35.068428 20.303621 139.999924
[Rope1_Seg04]
7 139.999924 -0.000060 -0.000119 -16.456905 -25.265610 11.228536 139.999924
8 139.999924 -0.000060 -0.000119 -8.185694 -19.350653 11.476595 139.999924
[Rope1_Seg05]
7 139.999832 0.000119 -0.000060 -0.830300 -9.913638 11.395997 139.999832
8 139.999832 0.000119 -0.000060 3.233254 -6.204296 10.758636 139.999832
[Rope1_Seg06]
7 139.999954 0.000119 -0.000060 1.267117 -6.776394 8.143539 139.999954
8 139.999954 0.000119 -0.000060 5.097422 -4.142981 8.122073 139.999954
[Rope1_Seg07]
7 139.999985 0.000060 0.000000 -7.580927 -4.304244 3.967926 139.999985
8 139.999985 0.000060 0.000000 3.791630 -2.823263 4.978538 139.999985
[Rope1_Seg09]
7 121.602913 0.000119 -0.000089 -89.793175 -1.359789 0.847147 121.602913
8 121.602913 0.000119 -0.000089 -89.793175 -1.359789 0.847147 121.602913
[L_mid_hand01]
7 103.859421 1.038730 8.195221 129.242493 -66.931091 -37.458961 104.187431
8 103.859421 1.038730 8.195221 126.075401 -65.098549 -33.991913 104.187431
[L_mid_hand02]
7 105.572853 -4.139662 -10.864139 -168.136536 43.236561 -72.353096 106.211075
8 105.572853 -4.139662 -10.864139 -166.035263 42.723965 -69.273842 106.211075
[L_mid_hand03]
7 104.641464 17.579376 -3.913581 -6.285013 17.719217 74.000862 106.179977
8 104.641464 17.579376 -3.913581 -7.014418 17.452778 71.596474 106.179977
[null_rope02_connect]
7 328.732849 0.000179 -0.000119 -129.468674 63.303123 16.061543 328.732849
8 328.732849 0.000179 -0.000119 -125.792892 66.817368 22.824465 328.732849
[Rope2_Seg01]
7 0.000089 0.000161 0.000000 -85.570335 29.671547 -17.560984 0.000184
8 0.000091 0.000163 0.000000 -95.565125 33.891872 -19.077894 0.000186
[Rope2_Seg02]
7 139.999741 -0.000060 -0.000119 -5.168030 -10.478260 8.346896 139.999756
8 139.999741 -0.000060 -0.000119 -4.261324 -9.882822 7.403754 139.999756
[Rope2_Seg03]
7 140.000107 0.000030 0.000000 -15.012042 -37.159111 31.878683 140.000107
8 140.000107 0.000030 0.000000 -7.723618 -27.463919 19.419458 140.000107
[Rope2_Seg04]
7 139.999802 0.000000 -0.000060 -8.178932 -38.983406 29.562771 139.999802
8 139.999802 0.000000 -0.000060 -9.203759 -38.618874 26.655611 139.999802
[Rope2_Seg05]
7 139.999985 -0.000060 0.000119 -2.119634 -15.302539 6.113413 139.999985
8 139.999985 -0.000060 0.000119 0.987422 -16.690517 11.358374 139.999985
[Rope2_Seg06]
7 139.999893 -0.000030 -0.000119 -5.235141 -10.235400 2.444284 139.999893
8 139.999893 -0.000030 -0.000119 2.715739 -7.350012 5.877873 139.999893
[Rope2_Seg07]
7 139.999893 0.000060 -0.000060 -3.302000 -5.323737 1.398467 139.999893
8 139.999893 0.000060 -0.000060 2.084389 -3.927398 3.221996 139.999893
[Rope2_Seg09]
7 121.338966 0.000089 -0.000060 33.793236 -1.359788 -0.847141 121.338966
8 121.338966 0.000089 -0.000060 33.793236 -1.359788 -0.847141 121.338966
[R_mid_hand01]
7 104.680779 11.144459 -10.335981 -16.562792 45.133286 69.965408 105.778534
8 104.680779 11.144459 -10.335981 -17.548510 44.833435 68.572052 105.778534
[R_mid_hand02]
7 104.070427 2.443552 8.231699 49.649654 -67.470848 38.658398 104.424065
8 104.070427 2.443552 8.231699 51.203640 -66.683899 36.975819 104.424065
[R_mid_hand03]
7 106.028137 -11.221827 -5.996406 -176.996689 15.531743 -76.202301 106.788818
8 106.028137 -11.221827 -5.996406 -176.709671 15.475002 -75.137619 106.788818
[spine02]
7 129.756927 0.001550 0.000119 -1.023900 -3.926965 6.770994 129.756927
8 129.756927 0.001550 0.000119 -1.023899 -3.926965 6.770993 129.756927
[spine03]
7 78.613800 0.087289 -4.898861 1.040680 4.146420 4.212376 78.766342
8 78.613800 0.087290 -4.898860 1.040681 4.146420 4.212376 78.766342
[pelvis]
7 169.435242 0.051022 0.000000 0.019518 -0.190233 -10.721436 169.435257
8 169.435242 0.051022 0.000000 0.019518 -0.190233 -10.721436 169.435257
[null_rope03_connect]
7 -1.257226 -2.466202 137.391083 -148.626892 -87.779121 -129.770309 137.418976
8 -1.257226 -2.466202 137.391083 -146.995865 -87.236282 -129.964905 137.418976
[null_rope04_connect]
7 -1.259640 -2.480268 -137.844437 -148.626892 -87.779121 -129.770309 137.872513
8 -1.259640 -2.480268 -137.844437 -146.995865 -87.236282 -129.964905 137.872513
[Rope3_Seg01]
7 -0.000018 -0.000063 -0.000153 -133.782730 -14.193186 -64.488297 0.000166
8 -0.000018 -0.000061 -0.000153 -135.643555 -19.262291 -63.169258 0.000165
[Rope3_Seg02]
7 139.999924 -0.000119 0.000060 -14.101851 4.328967 -32.281029 139.999924
8 139.999924 -0.000119 0.000060 -15.413605 6.123655 -30.800087 139.999924
[Rope3_Seg03]
7 139.999924 -0.000119 0.000119 -29.691488 10.084372 -27.451227 139.999924
8 139.999924 -0.000119 0.000119 -28.755394 12.885335 -25.642418 139.999924
[Rope3_Seg04]
7 139.999924 0.000119 0.000000 -56.039066 32.003548 -34.358650 139.999924
8 139.999924 0.000119 0.000000 -32.494900 21.126900 -19.398071 139.999924
[Rope3_Seg05]
7 139.999924 -0.000238 0.000060 -11.565722 36.940250 2.824856 139.999924
8 139.999924 -0.000238 0.000060 -28.967197 42.990780 -13.221144 139.999924
[Rope3_Seg06]
7 139.999893 -0.000119 -0.000060 -0.184680 8.020786 2.363687 139.999893
8 139.999893 -0.000119 -0.000060 -1.698449 15.168116 2.824687 139.999893
[Rope3_Seg07]
7 139.999771 0.000060 -0.000119 0.397008 4.098512 1.228368 139.999771
8 139.999771 0.000060 -0.000119 0.197787 6.273979 1.409315 139.999771
[Rope3_Seg08]
7 139.999985 -0.000060 0.000000 0.528530 2.204655 0.645006 139.999985
8 139.999985 -0.000060 0.000000 0.496355 3.189059 0.708153 139.999985
[Rope3_Seg09]
7 90.185997 -0.000179 -0.000060 89.793228 -1.359877 -0.847183 90.185997
8 90.185997 -0.000179 -0.000060 89.793228 -1.359877 -0.847183 90.185997
[R_rear_hand01]
7 103.366196 -6.073594 -10.757982 -177.501556 24.545221 -73.407959 104.101845
8 103.366196 -6.073594 -10.757982 -176.918228 24.486242 -72.002144 104.101845
[R_rear_hand02]
7 100.509819 12.039542 -7.992327 -13.210586 36.766556 71.607773 101.543350
8 100.509819 12.039542 -7.992327 -14.131634 36.459908 70.059998 101.543350
[R_rear_hand03]
7 101.539970 5.215704 5.435467 71.918968 -71.383453 21.055584 101.819031
8 101.539970 5.215704 5.435467 73.022980 -70.158020 19.886856 101.819031
[Rope4_Seg01]
7 0.000000 0.000009 0.000000 65.935295 -33.210945 -131.023636 0.000009
8 0.000000 0.000010 0.000000 64.673904 -32.429535 -129.434143 0.000010
[Rope4_Seg02]
7 139.999985 0.000060 0.000119 17.596878 -23.820921 14.714051 139.999985
8 139.999985 0.000060 0.000119 17.969507 -25.494167 15.964149 139.999985
[Rope4_Seg03]
7 139.999924 0.000000 -0.000238 25.204321 -17.488026 22.992588 139.999924
8 139.999924 0.000000 -0.000238 24.432587 -16.877310 23.675247 139.999924
[Rope4_Seg04]
7 139.999985 0.000000 0.000119 23.398996 -7.347399 40.392193 139.999985
8 139.999985 0.000000 0.000119 22.193359 -7.770249 38.157158 139.999985
[Rope4_Seg05]
7 139.999802 -0.000060 -0.000119 6.961328 6.444482 25.761377 139.999802
8 139.999802 -0.000060 -0.000119 7.333459 5.025080 25.309465 139.999802
[Rope4_Seg06]
7 139.999924 0.000000 0.000060 0.610850 2.732708 7.447128 139.999924
8 139.999924 0.000000 0.000060 0.858616 2.478208 7.520268 139.999924
[Rope4_Seg07]
7 139.999802 0.000000 0.000000 0.134877 1.526103 4.055176 139.999802
8 139.999802 0.000000 0.000000 0.275967 1.426914 4.140921 139.999802
[Rope4_Seg08]
7 139.999924 0.000000 0.000119 -1.535124 0.847893 2.236050 139.999924
8 139.999924 0.000000 0.000119 -1.456569 0.797595 2.291662 139.999924
[Rope4_Seg09]
7 90.185791 0.000060 0.000060 -135.617828 2.228885 0.850567 90.185791
8 90.185791 0.000060 0.000060 -135.617828 2.228885 0.850567 90.185791
[L_rear_hand01]
7 101.696655 -8.392275 -7.654577 -14.225124 -36.428970 110.098541 102.329041
8 101.696655 -8.392275 -7.654577 -17.565516 -35.113850 115.806488 102.329041
[L_rear_hand02]
7 102.726799 -1.568258 5.773216 73.119118 70.038193 160.218079 102.900848
8 102.726799 -1.568258 5.773216 76.237793 65.389854 163.579773 102.900848
[L_rear_hand03]
7 104.552910 9.721220 -10.420293 -176.860001 -24.478331 -108.136040 105.519653
8 104.552910 9.721220 -10.420293 -174.689285 -24.125307 -113.408821 105.519653
